<svg width="73" height="103" viewBox="0 0 73 103" fill="none" xmlns="http://www.w3.org/2000/svg">
<path d="M36.5001 69.2946L15.3881 46.4178L-1.34995e-06 63.0922L21.112 85.9689L21.1041 85.9775L34.301 100.278L35.1391 101.18L36.4947 102.667L36.5076 102.653L49.7052 88.3516L51.9008 85.9551L73 63.0922L57.6111 46.4178L36.5001 69.2946ZM45.3143 83.5948L43.1195 85.9916L36.5131 93.1502L36.5051 93.1416L36.4922 93.1556L29.8677 85.9775L29.8757 85.9689L8.76367 63.0922L15.3881 55.914L36.5001 78.7908L57.6111 55.914L64.2354 63.0922L45.3143 83.5948Z" fill="black"/>
<path d="M21.117 39.5738L34.301 53.8597L36.4871 56.2112L36.508 56.2338L49.7052 41.9338L51.888 39.5509L73 16.6741L57.6111 1.2824e-05L36.5001 22.8767L15.3881 1.2824e-05L-1.34995e-06 16.6741L21.125 39.5649L21.117 39.5738ZM8.76367 16.6741L15.3881 9.49623L36.5001 32.373L57.6111 9.49623L64.2354 16.6741L45.3143 37.1768L43.1346 39.5563L36.4991 46.7464L29.8538 39.5456L29.8617 39.537L8.76367 16.6741Z" fill="black"/>
</svg>
