<svg width="80" height="80" viewBox="0 0 80 80" fill="none" xmlns="http://www.w3.org/2000/svg">
<g clip-path="url(#clip0_11_111)">
<rect width="80" height="80" fill="white"/>
<path d="M20.2863 79.7169C17.1919 79.6823 14.1267 79.1148 11.2251 78.0392C9.10623 77.256 7.18918 76.0091 5.61412 74.3898C3.99041 72.8179 2.74171 70.9003 1.96078 68.7796C0.886081 65.8781 0.319359 62.8131 0.28549 59.7192C0.0478431 54.5757 0 53.0329 0 40C0 26.9671 0.052549 25.4298 0.283137 20.2824C0.321116 17.1896 0.888535 14.1263 1.96078 11.2251C2.74551 9.10588 3.99244 7.18807 5.61098 5.61098C7.1841 3.98873 9.10205 2.74119 11.2227 1.96078C14.1243 0.88519 17.1896 0.317669 20.2839 0.283137C25.429 0.0478431 26.9741 0 40 0C53.0259 0 54.5702 0.052549 59.7176 0.283137C62.8112 0.320847 65.8754 0.888271 68.7773 1.96078C70.897 2.74222 72.8144 3.98932 74.3882 5.6102C76.0096 7.1845 77.2572 9.10243 78.0392 11.2227C79.1151 14.1243 79.6829 17.1895 79.7176 20.2839C79.9529 25.4314 80.0008 26.9725 80.0008 40.0016C80.0008 53.0306 79.9529 54.5718 79.7176 59.7192C79.6803 62.8131 79.1126 65.8776 78.0392 68.7796C77.2273 70.884 75.9837 72.7952 74.3885 74.3899C72.7933 75.9847 70.8819 77.2278 68.7773 78.0392C65.8757 79.1151 62.8105 79.6828 59.7161 79.7176C54.5733 79.9529 53.0274 80.0008 39.9984 80.0008C26.9694 80.0008 25.4282 79.9553 20.2855 79.7176" fill="url(#paint0_radial_11_111)"/>
<path d="M20.2863 79.7169C17.1919 79.6823 14.1267 79.1148 11.2251 78.0392C9.10623 77.256 7.18918 76.0091 5.61412 74.3898C3.99041 72.8179 2.74171 70.9003 1.96078 68.7796C0.886081 65.8781 0.319359 62.8131 0.28549 59.7192C0.0478431 54.5757 0 53.0329 0 40C0 26.9671 0.052549 25.4298 0.283137 20.2824C0.321116 17.1896 0.888535 14.1263 1.96078 11.2251C2.74551 9.10588 3.99244 7.18807 5.61098 5.61098C7.1841 3.98873 9.10205 2.74119 11.2227 1.96078C14.1243 0.88519 17.1896 0.317669 20.2839 0.283137C25.429 0.0478431 26.9741 0 40 0C53.0259 0 54.5702 0.052549 59.7176 0.283137C62.8112 0.320847 65.8754 0.888271 68.7773 1.96078C70.897 2.74222 72.8144 3.98932 74.3882 5.6102C76.0096 7.1845 77.2572 9.10243 78.0392 11.2227C79.1151 14.1243 79.6829 17.1895 79.7176 20.2839C79.9529 25.4314 80.0008 26.9725 80.0008 40.0016C80.0008 53.0306 79.9529 54.5718 79.7176 59.7192C79.6803 62.8131 79.1126 65.8776 78.0392 68.7796C77.2273 70.884 75.9837 72.7952 74.3885 74.3899C72.7933 75.9847 70.8819 77.2278 68.7773 78.0392C65.8757 79.1151 62.8105 79.6828 59.7161 79.7176C54.5733 79.9529 53.0274 80.0008 39.9984 80.0008C26.9694 80.0008 25.4282 79.9553 20.2855 79.7176" fill="url(#paint1_radial_11_111)"/>
<path d="M30.1779 40.1701C30.1781 38.2107 30.7593 36.2954 31.848 34.6663C32.9367 33.0372 34.4841 31.7676 36.2944 31.0179C38.1047 30.2683 40.0967 30.0723 42.0184 30.4548C43.9401 30.8372 45.7052 31.781 47.0905 33.1666C48.4758 34.5523 49.4192 36.3176 49.8012 38.2394C50.1832 40.1612 49.9867 42.1531 49.2366 43.9633C48.4866 45.7734 47.2166 47.3204 45.5872 48.4088C43.9579 49.4971 42.0424 50.0779 40.083 50.0775C37.4558 50.0771 34.9362 49.0331 33.0787 47.1751C31.2212 45.3171 30.1777 42.7974 30.1779 40.1701ZM24.8219 40.1701C24.8219 43.1885 25.7169 46.1391 27.3938 48.6487C29.0708 51.1584 31.4542 53.1145 34.2428 54.2696C37.0314 55.4247 40.1 55.7269 43.0603 55.138C46.0207 54.5492 48.74 53.0957 50.8743 50.9614C53.0086 48.8271 54.4621 46.1078 55.051 43.1474C55.6398 40.187 55.3376 37.1185 54.1825 34.3299C53.0274 31.5413 51.0714 29.1578 48.5617 27.4809C46.052 25.804 43.1014 24.9089 40.083 24.9089C38.0789 24.9088 36.0943 25.3035 34.2427 26.0704C32.3911 26.8373 30.7087 27.9614 29.2915 29.3786C27.8744 30.7957 26.7502 32.4782 25.9833 34.3298C25.2164 36.1814 24.8218 38.1659 24.8219 40.1701ZM52.3819 24.3042C52.3815 25.0096 52.5904 25.6991 52.982 26.2858C53.3736 26.8724 53.9304 27.3298 54.5819 27.6C55.2335 27.8702 55.9505 27.9411 56.6423 27.8038C57.3342 27.6665 57.9698 27.3272 58.4688 26.8286C58.9677 26.3301 59.3077 25.6948 59.4456 25.0031C59.5835 24.3113 59.5132 23.5942 59.2435 22.9425C58.9739 22.2907 58.517 21.7335 57.9308 21.3414C57.3445 20.9493 56.655 20.7398 55.9497 20.7395C55.0043 20.7399 54.0976 21.1156 53.429 21.7839C52.7603 22.4523 52.3843 23.3588 52.3834 24.3042M28.0775 64.3622C26.1929 64.3415 24.3259 63.9966 22.5583 63.3426C21.2764 62.8485 20.1122 62.0915 19.1406 61.1203C18.1689 60.149 17.4114 58.9851 16.9168 57.7034C16.2625 55.9359 15.9176 54.0689 15.8972 52.1842C15.7528 49.0517 15.7246 48.1105 15.7246 40.174C15.7246 32.2375 15.756 31.2987 15.8972 28.163C15.92 26.2786 16.2649 24.412 16.9168 22.6438C17.4108 21.3615 18.1681 20.197 19.1398 19.2253C20.1115 18.2536 21.276 17.4963 22.5583 17.0022C24.3259 16.348 26.1929 16.0031 28.0775 15.9826C31.2101 15.8383 32.1513 15.8101 40.0846 15.8101C48.0179 15.8101 48.9599 15.8407 52.0956 15.9834C53.98 16.0063 55.8466 16.3511 57.6148 17.003C58.8971 17.4971 60.0616 18.2544 61.0333 19.2261C62.005 20.1978 62.7623 21.3623 63.2564 22.6446C63.9106 24.4121 64.2555 26.2792 64.276 28.1638C64.4203 31.3011 64.4485 32.2375 64.4485 40.1748C64.4485 48.1121 64.4195 49.0501 64.276 52.1858C64.254 54.0703 63.9092 55.937 63.2564 57.705C62.7617 58.9867 62.0042 60.1506 61.0326 61.1218C60.0609 62.0931 58.8967 62.8501 57.6148 63.3442C55.8473 63.9985 53.9802 64.3434 52.0956 64.3638C48.963 64.5081 48.0219 64.5364 40.0846 64.5364C32.1473 64.5364 31.2093 64.5074 28.0775 64.3638M27.8313 10.6313C25.3653 10.6798 22.9254 11.1465 20.6156 12.0117C18.6411 12.7751 16.8479 13.9427 15.351 15.4396C13.8541 16.9365 12.6865 18.7297 11.923 20.7042C11.058 23.014 10.5913 25.4539 10.5426 27.9199C10.396 31.0885 10.363 32.1019 10.363 40.1732C10.363 48.2446 10.3968 49.2572 10.5426 52.4266C10.5912 54.8926 11.058 57.3324 11.923 59.6422C12.6865 61.6167 13.8541 63.4099 15.351 64.9068C16.8479 66.4037 18.6411 67.5713 20.6156 68.3348C22.9255 69.1995 25.3653 69.6663 27.8313 69.7152C31.0015 69.8595 32.0132 69.8948 40.0846 69.8948C48.156 69.8948 49.1685 69.8611 52.3379 69.7152C54.8039 69.6665 57.2438 69.1997 59.5536 68.3348C61.5281 67.5713 63.3213 66.4037 64.8182 64.9068C66.3151 63.4099 67.4827 61.6167 68.2462 59.6422C69.1123 57.3328 69.5791 54.8927 69.6266 52.4266C69.7709 49.2556 69.8038 48.2446 69.8038 40.1732C69.8038 32.1019 69.7701 31.0893 69.6266 27.9199C69.5781 25.4539 69.1113 23.014 68.2462 20.7042C67.4828 18.7301 66.3154 16.9372 64.819 15.4403C63.3225 13.9434 61.5299 12.7756 59.556 12.0117C57.2463 11.146 54.8064 10.6792 52.3403 10.6313C49.1709 10.4862 48.1583 10.4517 40.0885 10.4517C32.0187 10.4517 31.0038 10.4854 27.8328 10.6313" fill="white"/>
</g>
<defs>
<radialGradient id="paint0_radial_11_111" cx="0" cy="0" r="1" gradientUnits="userSpaceOnUse" gradientTransform="translate(5.17725 78.2478) scale(101.57)">
<stop offset="0.09" stop-color="#FA8F21"/>
<stop offset="0.78" stop-color="#D82D7E"/>
</radialGradient>
<radialGradient id="paint1_radial_11_111" cx="0" cy="0" r="1" gradientUnits="userSpaceOnUse" gradientTransform="translate(55.4133 75.6784) scale(89.3827)">
<stop offset="0.64" stop-color="#8C3AAA" stop-opacity="0"/>
<stop offset="1" stop-color="#8C3AAA"/>
</radialGradient>
<clipPath id="clip0_11_111">
<rect width="80" height="80" fill="white"/>
</clipPath>
</defs>
</svg>
