<svg width="198" height="128" viewBox="0 0 198 128" fill="none" xmlns="http://www.w3.org/2000/svg">
<path d="M2.24 79.68V63.2C2.24 61.2587 2.54933 59.648 3.168 58.368C3.78667 57.088 4.64 56.128 5.728 55.488C6.83733 54.848 8.10667 54.528 9.536 54.528C11.2 54.528 12.6187 54.8907 13.792 55.616C14.9867 56.32 15.8933 57.344 16.512 58.688C17.1307 60.032 17.44 61.664 17.44 63.584C17.44 65.3973 17.1093 66.9653 16.448 68.288C15.7867 69.5893 14.8693 70.592 13.696 71.296C12.544 71.9787 11.2213 72.32 9.728 72.32C8.87467 72.32 8.04267 72.2027 7.232 71.968C6.42133 71.712 5.70667 71.3493 5.088 70.88H4.928C4.97067 71.2213 5.00267 71.776 5.024 72.544C5.04533 73.312 5.056 74.176 5.056 75.136V79.68H2.24ZM9.696 69.984C10.72 69.984 11.5947 69.7387 12.32 69.248C13.0453 68.7573 13.5893 68.0427 13.952 67.104C14.336 66.144 14.528 64.9707 14.528 63.584C14.528 61.3013 14.0907 59.616 13.216 58.528C12.3627 57.44 11.1147 56.896 9.472 56.896C8.04267 56.896 6.95467 57.4293 6.208 58.496C5.46133 59.5413 5.088 61.12 5.088 63.232V68.416C5.70667 68.9493 6.41067 69.344 7.2 69.6C8.01067 69.856 8.84267 69.984 9.696 69.984ZM33.4062 71.2188L30.4375 72.625H30.2812V71.7812C29.2812 72.1354 28.2135 72.3125 27.0781 72.3125C25.8594 72.3125 24.724 72.1094 23.6719 71.7031C21.724 70.9323 20.75 69.8594 20.75 68.4844V64.2656C20.75 62.8698 21.724 61.7969 23.6719 61.0469C24.724 60.6406 25.8594 60.4375 27.0781 60.4375C28.224 60.4375 29.2917 60.6146 30.2812 60.9688V58.875C30.2812 58.3542 29.9531 57.9635 29.2969 57.7031C28.651 57.4427 27.8594 57.3125 26.9219 57.3125H23.125V57.1562L24.375 54.5H26.9219C28.2448 54.5 29.4323 54.7031 30.4844 55.1094C32.4323 55.8594 33.4062 56.9323 33.4062 58.3281V71.2188ZM23.875 67.9375C23.875 68.4583 24.1979 68.849 24.8438 69.1094C25.5 69.3698 26.2448 69.5 27.0781 69.5C27.9115 69.5 28.651 69.3698 29.2969 69.1094C29.9531 68.849 30.2812 68.4583 30.2812 67.9375V64.8125C30.2812 64.2917 29.9531 63.901 29.2969 63.6406C28.651 63.3802 27.9115 63.25 27.0781 63.25C26.2448 63.25 25.5 63.3802 24.8438 63.6406C24.1979 63.901 23.875 64.2917 23.875 64.8125V67.9375ZM38.875 72.625V49.1875L41.8438 47.7812H42V60.7969L48.5312 54.1875H48.6875L51.4375 55.4844L46.2031 60.2969C47.1927 60.3698 48.099 60.5625 48.9219 60.875C50.8698 61.6146 51.8438 62.6875 51.8438 64.0938V71.2188L48.875 72.625H48.7188V64.6406C48.7188 64.1198 48.3906 63.7292 47.7344 63.4688C47.0885 63.2083 46.2969 63.0781 45.3594 63.0781C44.4219 63.0781 43.625 63.2083 42.9688 63.4688C42.3229 63.7292 42 64.1198 42 64.6406V71.2188L39.0312 72.625H38.875ZM57.3125 72.625V49.1875L60.2812 47.7812H60.4375V60.7969L66.9688 54.1875H67.125L69.875 55.4844L64.6406 60.2969C65.6302 60.3698 66.5365 60.5625 67.3594 60.875C69.3073 61.6146 70.2812 62.6875 70.2812 64.0938V71.2188L67.3125 72.625H67.1562V64.6406C67.1562 64.1198 66.8281 63.7292 66.1719 63.4688C65.526 63.2083 64.7344 63.0781 63.7969 63.0781C62.8594 63.0781 62.0625 63.2083 61.4062 63.4688C60.7604 63.7292 60.4375 64.1198 60.4375 64.6406V71.2188L57.4688 72.625H57.3125ZM86.8438 71.2188L83.875 72.625H83.7188V71.7812C82.7188 72.1354 81.651 72.3125 80.5156 72.3125C79.2969 72.3125 78.1615 72.1094 77.1094 71.7031C75.1615 70.9323 74.1875 69.8594 74.1875 68.4844V64.2656C74.1875 62.8698 75.1615 61.7969 77.1094 61.0469C78.1615 60.6406 79.2969 60.4375 80.5156 60.4375C81.6615 60.4375 82.7292 60.6146 83.7188 60.9688V58.875C83.7188 58.3542 83.3906 57.9635 82.7344 57.7031C82.0885 57.4427 81.2969 57.3125 80.3594 57.3125H76.5625V57.1562L77.8125 54.5H80.3594C81.6823 54.5 82.8698 54.7031 83.9219 55.1094C85.8698 55.8594 86.8438 56.9323 86.8438 58.3281V71.2188ZM77.3125 67.9375C77.3125 68.4583 77.6354 68.849 78.2812 69.1094C78.9375 69.3698 79.6823 69.5 80.5156 69.5C81.349 69.5 82.0885 69.3698 82.7344 69.1094C83.3906 68.849 83.7188 68.4583 83.7188 67.9375V64.8125C83.7188 64.2917 83.3906 63.901 82.7344 63.6406C82.0885 63.3802 81.349 63.25 80.5156 63.25C79.6823 63.25 78.9375 63.3802 78.2812 63.6406C77.6354 63.901 77.3125 64.2917 77.3125 64.8125V67.9375Z" fill="black"/>
<path d="M138.624 72.352C137.643 72.352 136.736 72.2133 135.904 71.936C135.072 71.6373 134.4 71.104 133.888 70.336C133.376 69.568 133.12 68.4693 133.12 67.04V57.024H128.512V54.848H142.656V57.024H135.968V66.752C135.968 67.5627 136.096 68.2133 136.352 68.704C136.608 69.1947 136.971 69.5467 137.44 69.76C137.909 69.9733 138.443 70.08 139.04 70.08C139.509 70.08 139.989 70.048 140.48 69.984C140.992 69.8987 141.419 69.8133 141.76 69.728V71.84C141.461 71.968 141.013 72.0853 140.416 72.192C139.84 72.2987 139.243 72.352 138.624 72.352ZM146.812 72.625V49.1875L149.781 47.7812H149.938V55.0312C150.938 54.6771 152.057 54.5 153.297 54.5C154.62 54.5 155.807 54.7031 156.859 55.1094C158.807 55.8594 159.781 56.9323 159.781 58.3281V71.2188L156.812 72.625H156.656V58.875C156.656 58.3542 156.328 57.9635 155.672 57.7031C155.026 57.4427 154.234 57.3125 153.297 57.3125C152.359 57.3125 151.562 57.4427 150.906 57.7031C150.26 57.9635 149.938 58.3542 149.938 58.875V71.2188L146.969 72.625H146.812ZM176.344 71.2188L173.375 72.625H173.219V71.7812C172.219 72.1354 171.151 72.3125 170.016 72.3125C168.797 72.3125 167.661 72.1094 166.609 71.7031C164.661 70.9323 163.688 69.8594 163.688 68.4844V64.2656C163.688 62.8698 164.661 61.7969 166.609 61.0469C167.661 60.6406 168.797 60.4375 170.016 60.4375C171.161 60.4375 172.229 60.6146 173.219 60.9688V58.875C173.219 58.3542 172.891 57.9635 172.234 57.7031C171.589 57.4427 170.797 57.3125 169.859 57.3125H166.062V57.1562L167.312 54.5H169.859C171.182 54.5 172.37 54.7031 173.422 55.1094C175.37 55.8594 176.344 56.9323 176.344 58.3281V71.2188ZM166.812 67.9375C166.812 68.4583 167.135 68.849 167.781 69.1094C168.438 69.3698 169.182 69.5 170.016 69.5C170.849 69.5 171.589 69.3698 172.234 69.1094C172.891 68.849 173.219 68.4583 173.219 67.9375V64.8125C173.219 64.2917 172.891 63.901 172.234 63.6406C171.589 63.3802 170.849 63.25 170.016 63.25C169.182 63.25 168.438 63.3802 167.781 63.6406C167.135 63.901 166.812 64.2917 166.812 64.8125V67.9375ZM166.406 52.9219L168.797 48.8438L171.547 47.5312H171.703L175.031 52.9219L173.219 53.7812H173.062L170.719 50.5312L168.406 53.7812H168.25L166.406 52.9219ZM181.812 72.625V49.1875L184.781 47.7812H184.938V71.2188L181.969 72.625H181.812ZM191.422 51.3594C191.057 50.9844 190.875 50.5365 190.875 50.0156C190.875 49.4844 191.057 49.0312 191.422 48.6562C191.786 48.2812 192.229 48.0938 192.75 48.0938C193.271 48.0938 193.714 48.2812 194.078 48.6562C194.443 49.0312 194.625 49.4844 194.625 50.0156C194.625 50.5365 194.443 50.9844 194.078 51.3594C193.714 51.7344 193.271 51.9219 192.75 51.9219C192.229 51.9219 191.786 51.7344 191.422 51.3594ZM191.188 72.625V55.5938L194.156 54.1875H194.312V71.2188L191.344 72.625H191.188Z" fill="black"/>
<path d="M119.625 69.375C120 69.7917 120.167 70.2917 120.125 70.875C120.125 71.4583 119.917 72 119.5 72.5C119.125 73 118.542 73.25 117.75 73.25C117 73.25 116.417 72.9583 116 72.375L108.688 63.625L101.875 72.25C101.375 72.9167 100.75 73.25 100 73.25C99.25 73.25 98.6667 73.0417 98.25 72.625C97.8333 72.2083 97.625 71.6875 97.625 71.0625C97.625 70.4375 97.7917 69.8958 98.125 69.4375L106.125 60.125L98.125 50.375C97.75 49.9167 97.5625 49.3958 97.5625 48.8125C97.6042 48.1875 97.8333 47.6667 98.25 47.25C98.7083 46.8333 99.2917 46.625 100 46.625C100.75 46.625 101.333 46.9167 101.75 47.5L108.938 56.375L116.062 47.5C116.479 46.9167 117.042 46.625 117.75 46.625C118.5 46.625 119.083 46.8333 119.5 47.25C119.958 47.6667 120.188 48.1667 120.188 48.75C120.188 49.3333 120.021 49.8333 119.688 50.25L111.625 59.8125L119.625 69.375Z" fill="#C80505"/>
</svg>
